<svg width="18" height="18" viewBox="0 0 18 18" fill="none" xmlns="http://www.w3.org/2000/svg">
<g clip-path="url(#clip0_2_1417)">
<g opacity="0.5">
<path opacity="0.5" d="M11.9896 8.99926C11.9922 8.60545 11.9159 8.21512 11.7652 7.85128C11.6145 7.48744 11.3925 7.15746 11.1123 6.88081C10.8368 6.6025 10.5087 6.38184 10.147 6.23173C9.78539 6.08161 9.39747 6.00503 9.00592 6.00646C8.6125 6.00335 8.22244 6.07901 7.8587 6.22899C7.49496 6.37897 7.1649 6.60024 6.88797 6.87976C6.60851 7.15676 6.3873 7.48689 6.23735 7.85072C6.08741 8.21454 6.01176 8.6047 6.01487 8.99821C6.01011 9.39108 6.08386 9.78095 6.2318 10.1449C6.37974 10.5089 6.59889 10.8396 6.87638 11.1177C7.15462 11.3972 7.48608 11.618 7.85113 11.7671C8.21619 11.9162 8.60743 11.9905 9.00171 11.9857C9.39319 11.9873 9.78105 11.9109 10.1427 11.761C10.5043 11.611 10.8325 11.3906 11.1081 11.1124C11.3883 10.8358 11.6103 10.5058 11.761 10.142C11.9116 9.77814 11.9879 9.38781 11.9854 8.994L11.9896 8.99926ZM13.6157 8.99926C13.6131 10.2242 13.1257 11.3983 12.2603 12.2649C11.3949 13.1279 10.2237 13.614 9.00171 13.6175C7.77707 13.6149 6.60327 13.1274 5.73683 12.2617C4.87136 11.3951 4.38404 10.221 4.38138 8.9961C4.38404 7.77117 4.87136 6.5971 5.73683 5.73046C6.6031 4.8644 7.77692 4.37658 9.00171 4.37364C10.2264 4.3763 11.4002 4.86373 12.2666 5.72941C13.1309 6.59656 13.6171 7.77057 13.6189 8.99505L13.6157 8.99926ZM14.8795 4.20088C14.8768 4.48673 14.7636 4.76044 14.5636 4.96462C14.4636 5.0643 14.3443 5.14246 14.213 5.19427C14.0816 5.24608 13.9411 5.27046 13.8 5.2659C13.6589 5.27046 13.5184 5.24608 13.3871 5.19427C13.2558 5.14246 13.1364 5.0643 13.0365 4.96462C12.9368 4.86461 12.8587 4.74526 12.8069 4.61392C12.7551 4.48257 12.7307 4.342 12.7353 4.20088C12.7307 4.05975 12.7551 3.91919 12.8069 3.78784C12.8587 3.65649 12.9368 3.53714 13.0365 3.43714C13.1364 3.33746 13.2558 3.2593 13.3871 3.20749C13.5184 3.15567 13.6589 3.1313 13.8 3.13586C13.9411 3.1313 14.0816 3.15567 14.213 3.20749C14.3443 3.2593 14.4636 3.33746 14.5636 3.43714C14.7634 3.64106 14.8766 3.91434 14.8795 4.19983V4.20088ZM9.00171 1.6284C8.27923 1.61505 7.3791 1.61505 6.30134 1.6284C5.42139 1.61269 4.5444 1.7346 3.70208 1.98972C3.50967 2.06588 3.3249 2.16005 3.15021 2.27099C2.97574 2.3838 2.81401 2.51519 2.66785 2.66287C2.52021 2.80906 2.38885 2.97083 2.27607 3.14534C2.16515 3.32006 2.071 3.50488 1.99486 3.69734C1.7398 4.53985 1.61792 5.41706 1.63362 6.29721C1.61817 7.37522 1.61045 8.27591 1.61045 8.99926C1.61045 9.72262 1.61712 10.623 1.63046 11.7003C1.61545 12.5816 1.73841 13.4599 1.99486 14.3033C2.071 14.4957 2.16515 14.6806 2.27607 14.8553C2.38885 15.0298 2.52021 15.1916 2.66785 15.3378C2.81401 15.4854 2.97574 15.6168 3.15021 15.7296C3.32489 15.8406 3.50967 15.9348 3.70208 16.0109C4.5444 16.266 5.42139 16.3879 6.30134 16.3722C7.3784 16.3856 8.27852 16.3923 9.00171 16.3923C9.7249 16.3923 10.625 16.3856 11.7021 16.3722C12.582 16.3879 13.459 16.266 14.3013 16.0109C14.4937 15.9348 14.6785 15.8406 14.8532 15.7296C15.0277 15.6168 15.1894 15.4854 15.3356 15.3378C15.4832 15.1916 15.6146 15.0298 15.7274 14.8553C15.8383 14.6806 15.9324 14.4957 16.0086 14.3033C16.2636 13.4608 16.3855 12.5836 16.3698 11.7034C16.3831 10.6261 16.3898 9.72578 16.3898 9.00242C16.3898 8.27907 16.3828 7.37733 16.3687 6.29721C16.3844 5.41706 16.2626 4.53985 16.0075 3.69734C15.9314 3.50488 15.8372 3.32006 15.7263 3.14534C15.6135 2.97082 15.4822 2.80906 15.3345 2.66287C15.1884 2.51519 15.0266 2.3838 14.8522 2.27099C14.6775 2.16005 14.4927 2.06588 14.3003 1.98972C13.458 1.7346 12.581 1.61269 11.701 1.6284C10.6219 1.61505 9.72209 1.61505 9.00171 1.6284ZM17.9959 9.00242C18.0093 10.2342 17.9892 11.4724 17.9359 12.7168C17.9151 13.4068 17.7933 14.09 17.5746 14.7447C17.3448 15.3967 16.967 15.9867 16.4709 16.4681C15.988 16.9637 15.3968 17.3405 14.7437 17.5689C14.0891 17.7877 13.4061 17.9094 12.7163 17.9303C11.4686 17.9871 10.2304 18.0072 9.00171 17.9903C7.77019 18.0072 6.53199 17.9886 5.28712 17.9345C4.59711 17.9123 3.91407 17.7891 3.25974 17.5689C2.6056 17.3413 2.01324 16.9648 1.52936 16.4692C1.0327 15.9865 0.65487 15.3951 0.425617 14.7415C0.206915 14.0868 0.0852107 13.4036 0.0643747 12.7137C0.0103111 11.4706 -0.00969945 10.2325 0.00434303 8.99926C-0.00899733 7.76745 0.0110132 6.52932 0.0643747 5.28486C0.0852107 4.5949 0.206915 3.9117 0.425617 3.257C0.65487 2.60343 1.0327 2.01203 1.52936 1.52937C2.0116 1.03274 2.60249 0.654828 3.25553 0.425376C3.91007 0.206622 4.59311 0.0848906 5.28291 0.0640497C6.52778 0.0106758 7.76562 -0.00934056 8.99644 0.00400292C10.228 -0.00934056 11.4658 0.0106758 12.71 0.0640497C13.3998 0.0848906 14.0828 0.206622 14.7374 0.425376C15.3892 0.654958 15.9789 1.03248 16.4604 1.52832C16.9569 2.01067 17.3347 2.6017 17.5641 3.2549C17.7828 3.90959 17.9045 4.59279 17.9254 5.28275C17.9801 6.53072 18.0008 7.7692 17.9875 8.99821L17.9959 9.00242Z" fill="#0C2050"/>
</g>
</g>
<defs>
<clipPath id="clip0_2_1417">
<rect width="18" height="18" fill="white"/>
</clipPath>
</defs>
</svg>
